<svg width="22" height="23" viewBox="0 0 22 23" fill="none" xmlns="http://www.w3.org/2000/svg">
<path fill-rule="evenodd" clip-rule="evenodd" d="M16.2777 13.3891C16.9524 13.3891 17.5188 13.946 17.4156 14.6123C16.8103 18.5323 13.4545 21.4428 9.40717 21.4428C4.92928 21.4428 1.2998 17.8134 1.2998 13.3365C1.2998 9.64809 4.10191 6.2123 7.25665 5.43546C7.93454 5.26809 8.62928 5.74493 8.62928 6.44283C8.62928 11.1712 8.78823 12.3944 9.68612 13.0597C10.584 13.7249 11.6398 13.3891 16.2777 13.3891Z" stroke="#151515" stroke-width="1.5" stroke-linecap="round" stroke-linejoin="round"/>
<path fill-rule="evenodd" clip-rule="evenodd" d="M20.6921 9.45157C20.7458 6.41368 17.0142 1.51684 12.4669 1.60105C12.1132 1.60736 11.83 1.9021 11.8142 2.25473C11.6995 4.75263 11.8542 7.98947 11.9406 9.45684C11.9669 9.91368 12.3258 10.2726 12.7816 10.2989C14.29 10.3853 17.6448 10.5032 20.1069 10.1305C20.4416 10.08 20.6869 9.78947 20.6921 9.45157Z" stroke="#151515" stroke-width="1.5" stroke-linecap="round" stroke-linejoin="round"/>
</svg>
