<svg width="21" height="20" viewBox="0 0 21 20" fill="none" xmlns="http://www.w3.org/2000/svg">
<path fill-rule="evenodd" clip-rule="evenodd" d="M10.8264 0.209663C10.9861 0.0663223 11.1973 -0.00881318 11.4135 0.000824899C15.9843 0.137655 19.8044 3.4558 20.4967 7.89063C20.5011 7.91711 20.5011 7.94411 20.4967 7.97059C20.5116 8.18043 20.4407 8.38745 20.2996 8.54585C20.1586 8.70425 19.959 8.80099 19.7451 8.81466L12.0656 9.3211C11.8116 9.34362 11.5597 9.26005 11.3718 9.09092C11.1839 8.92179 11.0774 8.68278 11.0785 8.43261L10.5623 0.889316V0.764928C10.5717 0.552776 10.6667 0.353003 10.8264 0.209663ZM10.2997 11.2936L16.9297 10.8848H17.0011C17.2869 10.8895 17.5591 11.0054 17.7579 11.207C17.9566 11.4087 18.0655 11.6795 18.0606 11.9599C17.7984 15.782 14.9962 18.9755 11.1828 19.7982C7.36938 20.621 3.46017 18.8754 1.58778 15.5139C1.03722 14.5457 0.689303 13.4794 0.564454 12.3775C0.516031 12.051 0.49483 11.7212 0.501062 11.3913C0.513682 7.32706 3.40728 3.81907 7.45607 2.9595C7.9462 2.86776 8.43762 3.11248 8.65146 3.55479C8.75711 3.71408 8.78448 3.9091 8.79693 4.09983C8.86702 5.17389 8.93928 6.23903 9.01126 7.30004C9.07317 8.2127 9.13488 9.1223 9.19482 10.0319C9.19173 10.2462 9.2254 10.4594 9.29444 10.6627C9.45695 11.0627 9.86136 11.3165 10.2997 11.2936Z" fill="#6255F6"/>
</svg>
