<svg width="24" height="25" viewBox="0 0 24 25" fill="none" xmlns="http://www.w3.org/2000/svg">
<path fill-rule="evenodd" clip-rule="evenodd" d="M2 12.5058C2 6.98625 6.48842 2.5 12 2.5C17.5116 2.5 22 6.98625 22 12.5058C22 18.0137 17.5116 22.5 12 22.5C6.48842 22.5 2 18.0137 2 12.5058ZM15.668 13.5178C15.7741 13.4117 15.9093 13.2477 15.9382 13.2091C16.0927 13.0065 16.1699 12.7557 16.1699 12.5058C16.1699 12.225 16.083 11.9645 15.9189 11.7523C15.9055 11.7388 15.8791 11.7102 15.8448 11.6728C15.7806 11.603 15.6885 11.5026 15.6004 11.4146C14.8089 10.5656 12.7432 9.17631 11.6622 8.75181C11.4981 8.68524 11.083 8.53956 10.861 8.52991C10.6486 8.52991 10.4459 8.57815 10.2529 8.67463C10.0116 8.8097 9.81853 9.02195 9.71236 9.27279C9.64479 9.44645 9.53861 9.96744 9.53861 9.97709C9.43243 10.5463 9.37452 11.4725 9.37452 12.4952C9.37452 13.4706 9.43243 14.3572 9.51931 14.9361C9.52169 14.9385 9.53 14.9799 9.5429 15.0442C9.58211 15.2397 9.6638 15.6471 9.75097 15.814C9.96332 16.2192 10.3784 16.4701 10.8224 16.4701H10.861C11.1506 16.4604 11.7587 16.2096 11.7587 16.2C12.7819 15.7754 14.7992 14.4537 15.61 13.5757L15.668 13.5178Z" fill="#6255F6"/>
</svg>
