<svg width="24" height="25" viewBox="0 0 24 25" fill="none" xmlns="http://www.w3.org/2000/svg">
<path fill-rule="evenodd" clip-rule="evenodd" d="M8 2.75C8.41421 2.75 8.75 3.08579 8.75 3.5V4.75H15.25V3.5C15.25 3.08579 15.5858 2.75 16 2.75C16.4142 2.75 16.75 3.08579 16.75 3.5V4.75H18C19.5188 4.75 20.75 5.98122 20.75 7.5V19.5C20.75 21.0188 19.5188 22.25 18 22.25H6C4.48122 22.25 3.25 21.0188 3.25 19.5V7.5C3.25 5.98122 4.48122 4.75 6 4.75H7.25V3.5C7.25 3.08579 7.58579 2.75 8 2.75ZM7.25 6.25H6C5.30964 6.25 4.75 6.80964 4.75 7.5V10.75H19.25V7.5C19.25 6.80964 18.6904 6.25 18 6.25H16.75V7.5C16.75 7.91421 16.4142 8.25 16 8.25C15.5858 8.25 15.25 7.91421 15.25 7.5V6.25H8.75V7.5C8.75 7.91421 8.41421 8.25 8 8.25C7.58579 8.25 7.25 7.91421 7.25 7.5V6.25ZM19.25 12.25H4.75V19.5C4.75 20.1904 5.30964 20.75 6 20.75H18C18.6904 20.75 19.25 20.1904 19.25 19.5V12.25ZM12 13.75C12.4142 13.75 12.75 14.0858 12.75 14.5V15.75H14C14.4142 15.75 14.75 16.0858 14.75 16.5C14.75 16.9142 14.4142 17.25 14 17.25H12.75V18.5C12.75 18.9142 12.4142 19.25 12 19.25C11.5858 19.25 11.25 18.9142 11.25 18.5V17.25H10C9.58579 17.25 9.25 16.9142 9.25 16.5C9.25 16.0858 9.58579 15.75 10 15.75H11.25V14.5C11.25 14.0858 11.5858 13.75 12 13.75Z" fill="#333333"/>
</svg>
