<svg width="24" height="25" viewBox="0 0 24 25" fill="none" xmlns="http://www.w3.org/2000/svg">
<path fill-rule="evenodd" clip-rule="evenodd" d="M4.22676 4.72676C4.5291 4.42441 5.01929 4.42441 5.32163 4.72676L12 11.4051L18.6784 4.72677C18.9807 4.42443 19.4709 4.42443 19.7732 4.72677C20.0756 5.02911 20.0756 5.5193 19.7732 5.82164L13.0949 12.5L19.7732 19.1784C20.0756 19.4807 20.0756 19.9709 19.7732 20.2732C19.4709 20.5756 18.9807 20.5756 18.6784 20.2732L12 13.5949L5.32163 20.2732C5.01929 20.5756 4.5291 20.5756 4.22676 20.2732C3.92441 19.9709 3.92441 19.4807 4.22676 19.1784L10.9051 12.5L4.22676 5.82163C3.92441 5.51929 3.92441 5.0291 4.22676 4.72676Z" fill="#323B4B"/>
</svg>
