<svg width="24" height="25" viewBox="0 0 24 25" fill="none" xmlns="http://www.w3.org/2000/svg">
    <path fill-rule="evenodd" clip-rule="evenodd" d="M7.81 2.5H16.191C19.28 2.5 21 4.28 21 7.33V17.66C21 20.76 19.28 22.5 16.191 22.5H7.81C4.77 22.5 3 20.76 3 17.66V7.33C3 4.28 4.77 2.5 7.81 2.5ZM8.08 7.16V7.15H11.069C11.5 7.15 11.85 7.5 11.85 7.929C11.85 8.37 11.5 8.72 11.069 8.72H8.08C7.649 8.72 7.3 8.37 7.3 7.94C7.3 7.51 7.649 7.16 8.08 7.16ZM8.08 13.24H15.92C16.35 13.24 16.7 12.89 16.7 12.46C16.7 12.03 16.35 11.679 15.92 11.679H8.08C7.649 11.679 7.3 12.03 7.3 12.46C7.3 12.89 7.649 13.24 8.08 13.24ZM8.08 17.81H15.92C16.319 17.77 16.62 17.429 16.62 17.03C16.62 16.62 16.319 16.28 15.92 16.24H8.08C7.78 16.21 7.49 16.35 7.33 16.61C7.17 16.86 7.17 17.19 7.33 17.45C7.49 17.7 7.78 17.85 8.08 17.81Z" fill="#151515"/>
</svg>
