<svg width="24" height="25" viewBox="0 0 24 25" fill="none" xmlns="http://www.w3.org/2000/svg">
<path fill-rule="evenodd" clip-rule="evenodd" d="M15.4137 3.80754C15.9039 3.6045 16.4292 3.5 16.9598 3.5C17.4904 3.5 18.0157 3.6045 18.5059 3.80754C18.9961 4.01058 19.4415 4.30818 19.8167 4.68335C20.1918 5.05851 20.4894 5.5039 20.6925 5.99408C20.8955 6.48426 21 7.00963 21 7.54019C21 8.07076 20.8955 8.59613 20.6925 9.08631C20.4894 9.57649 20.1918 10.0219 19.8167 10.397L7.96171 22.252C7.80291 22.4108 7.58753 22.5 7.36295 22.5H2.84678C2.37912 22.5 2 22.1209 2 21.6532V17.1371C2 16.9125 2.08921 16.6971 2.24802 16.5383L14.103 4.68335C14.4781 4.30818 14.9235 4.01058 15.4137 3.80754ZM13.5727 7.60868L3.69356 17.4878V20.8064H7.0122L16.8913 10.9273L13.5727 7.60868ZM18.0888 9.72979L14.7702 6.41115L15.3005 5.88088C15.5184 5.66297 15.7771 5.49012 16.0618 5.37219C16.3465 5.25426 16.6516 5.19356 16.9598 5.19356C17.268 5.19356 17.5731 5.25426 17.8578 5.37219C18.1425 5.49012 18.4012 5.66297 18.6191 5.88088C18.837 6.09878 19.0099 6.35747 19.1278 6.64218C19.2457 6.92688 19.3064 7.23203 19.3064 7.54019C19.3064 7.84836 19.2457 8.15351 19.1278 8.43821C19.0099 8.72292 18.837 8.98161 18.6191 9.19951L18.0888 9.72979Z" fill="#333333"/>
</svg>
