<svg width="24" height="25" viewBox="0 0 24 25" fill="none" xmlns="http://www.w3.org/2000/svg">
<path fill-rule="evenodd" clip-rule="evenodd" d="M3.67241 12.5C5.99349 16.2167 8.77183 17.9444 12 17.9444C15.2282 17.9444 18.0065 16.2167 20.3276 12.5C18.0065 8.7833 15.2282 7.05556 12 7.05556C8.77183 7.05556 5.99349 8.7833 3.67241 12.5ZM2.10962 12.0998C4.66322 7.79654 7.95726 5.5 12 5.5C16.0427 5.5 19.3368 7.79654 21.8904 12.0998C22.0365 12.3461 22.0365 12.6539 21.8904 12.9002C19.3368 17.2035 16.0427 19.5 12 19.5C7.95726 19.5 4.66322 17.2035 2.10962 12.9002C1.96346 12.6539 1.96346 12.3461 2.10962 12.0998ZM10.0056 10.4834C10.5345 9.94861 11.252 9.64815 12 9.64815C12.748 9.64815 13.4655 9.94861 13.9944 10.4834C14.5234 11.0183 14.8205 11.7436 14.8205 12.5C14.8205 13.2564 14.5234 13.9817 13.9944 14.5166C13.4655 15.0514 12.748 15.3519 12 15.3519C11.252 15.3519 10.5345 15.0514 10.0056 14.5166C9.47665 13.9817 9.17949 13.2564 9.17949 12.5C9.17949 11.7436 9.47665 11.0183 10.0056 10.4834ZM12 11.2037C11.66 11.2037 11.3339 11.3403 11.0935 11.5834C10.853 11.8265 10.7179 12.1562 10.7179 12.5C10.7179 12.8438 10.853 13.1735 11.0935 13.4166C11.3339 13.6597 11.66 13.7963 12 13.7963C12.34 13.7963 12.6661 13.6597 12.9065 13.4166C13.147 13.1735 13.2821 12.8438 13.2821 12.5C13.2821 12.1562 13.147 11.8265 12.9065 11.5834C12.6661 11.3403 12.34 11.2037 12 11.2037Z" fill="#333333"/>
</svg>
