<svg width="20" height="21" viewBox="0 0 20 21" fill="none" xmlns="http://www.w3.org/2000/svg">
<path fill-rule="evenodd" clip-rule="evenodd" d="M10.0634 1.42052C10.6528 0.831121 11.4522 0.5 12.2857 0.5C13.1193 0.5 13.9187 0.831121 14.508 1.42052C14.8907 1.80313 15.1644 2.27423 15.3094 2.78571H19.1429C19.6162 2.78571 20 3.16947 20 3.64286C20 4.11624 19.6162 4.5 19.1429 4.5H15.3094C15.1644 5.01149 14.8907 5.48259 14.508 5.86519C13.9187 6.45459 13.1193 6.78571 12.2857 6.78571C11.4522 6.78571 10.6528 6.45459 10.0634 5.86519C9.68077 5.48259 9.407 5.01149 9.26199 4.5H0.857143C0.383756 4.5 0 4.11624 0 3.64286C0 3.16947 0.383756 2.78571 0.857143 2.78571H9.26199C9.407 2.27423 9.68077 1.80313 10.0634 1.42052ZM12.2857 2.21429C11.9068 2.21429 11.5435 2.3648 11.2756 2.6327C11.0077 2.90061 10.8571 3.26398 10.8571 3.64286C10.8571 4.02174 11.0077 4.3851 11.2756 4.65301C11.5435 4.92092 11.9068 5.07143 12.2857 5.07143C12.6646 5.07143 13.028 4.92092 13.2959 4.65301C13.5638 4.3851 13.7143 4.02174 13.7143 3.64286C13.7143 3.26398 13.5638 2.90061 13.2959 2.6327C13.028 2.3648 12.6646 2.21429 12.2857 2.21429ZM3.20624 8.27767C3.79564 7.68827 4.59503 7.35714 5.42857 7.35714C6.26211 7.35714 7.06151 7.68827 7.65091 8.27767C8.03351 8.66027 8.30729 9.13137 8.45229 9.64286H19.1429C19.6162 9.64286 20 10.0266 20 10.5C20 10.9734 19.6162 11.3571 19.1429 11.3571H8.45229C8.30729 11.8686 8.03351 12.3397 7.65091 12.7223C7.06151 13.3117 6.26211 13.6429 5.42857 13.6429C4.59503 13.6429 3.79564 13.3117 3.20624 12.7223C2.82363 12.3397 2.54986 11.8686 2.40485 11.3571H0.857143C0.383756 11.3571 0 10.9734 0 10.5C0 10.0266 0.383756 9.64286 0.857143 9.64286H2.40485C2.54986 9.13137 2.82363 8.66027 3.20624 8.27767ZM5.42857 9.07143C5.04969 9.07143 4.68633 9.22194 4.41842 9.48985C4.15051 9.75776 4 10.1211 4 10.5C4 10.8789 4.15051 11.2422 4.41842 11.5102C4.68633 11.7781 5.04969 11.9286 5.42857 11.9286C5.80745 11.9286 6.17081 11.7781 6.43872 11.5102C6.70663 11.2422 6.85714 10.8789 6.85714 10.5C6.85714 10.1211 6.70663 9.75776 6.43872 9.48985C6.17081 9.22194 5.80745 9.07143 5.42857 9.07143ZM13.492 15.1348C14.0814 14.5454 14.8807 14.2143 15.7143 14.2143C16.5478 14.2143 17.3472 14.5454 17.9366 15.1348C18.3192 15.5174 18.593 15.9885 18.738 16.5H19.1429C19.6162 16.5 20 16.8838 20 17.3571C20 17.8305 19.6162 18.2143 19.1429 18.2143H18.738C18.593 18.7258 18.3192 19.1969 17.9366 19.5795C17.3472 20.1689 16.5478 20.5 15.7143 20.5C14.8807 20.5 14.0814 20.1689 13.492 19.5795C13.1093 19.1969 12.8356 18.7258 12.6906 18.2143H0.857143C0.383756 18.2143 0 17.8305 0 17.3571C0 16.8838 0.383756 16.5 0.857143 16.5H12.6906C12.8356 15.9885 13.1093 15.5174 13.492 15.1348ZM15.7143 15.9286C15.3354 15.9286 14.972 16.0791 14.7041 16.347C14.4362 16.6149 14.2857 16.9783 14.2857 17.3571C14.2857 17.736 14.4362 18.0994 14.7041 18.3673C14.972 18.6352 15.3354 18.7857 15.7143 18.7857C16.0932 18.7857 16.4565 18.6352 16.7244 18.3673C16.9923 18.0994 17.1429 17.736 17.1429 17.3571C17.1429 16.9783 16.9923 16.6149 16.7244 16.347C16.4565 16.0791 16.0932 15.9286 15.7143 15.9286Z" fill="#333333"/>
</svg>
