<svg width="19" height="19" viewBox="0 0 19 19" fill="none" xmlns="http://www.w3.org/2000/svg">
<path d="M9.50059 3.67344C11.2846 3.67344 12.4879 4.44406 13.1741 5.08799L15.8553 2.47009C14.2086 0.939439 12.0657 0 9.50059 0C5.78495 0 2.57593 2.13228 1.01367 5.2357L4.08539 7.62138C4.85602 5.3307 6.9883 3.67344 9.50059 3.67344Z" fill="#EA4335"/>
<path d="M18.6203 9.71132C18.6203 8.93019 18.557 8.36017 18.4197 7.76904H9.5V11.2947H14.7358C14.6302 12.1708 14.0602 13.4904 12.7934 14.377L15.7913 16.6994C17.5859 15.042 18.6203 12.6036 18.6203 9.71132Z" fill="#4285F4"/>
<path d="M4.09575 11.3795C3.89514 10.7883 3.77904 10.1549 3.77904 9.50049C3.77904 8.84597 3.89514 8.21265 4.08515 7.62152L1.01334 5.23584C0.369509 6.52369 0 7.96984 0 9.50049C0 11.0311 0.369509 12.4773 1.01334 13.7651L4.09575 11.3795Z" fill="#FBBC05"/>
<path d="M9.49985 19.0008C12.0649 19.0008 14.2183 18.1563 15.7912 16.6996L12.7933 14.3773C11.991 14.9367 10.9143 15.3273 9.49985 15.3273C6.98756 15.3273 4.85528 13.67 4.09525 11.3794L1.02344 13.765C2.5857 16.8685 5.78412 19.0008 9.49985 19.0008Z" fill="#34A853"/>
</svg>
