<svg width="32" height="33" viewBox="0 0 32 33" fill="none" xmlns="http://www.w3.org/2000/svg">
<path d="M0 16.5C0 7.66344 7.16344 0.5 16 0.5C24.8366 0.5 32 7.66344 32 16.5C32 25.3366 24.8366 32.5 16 32.5C7.16344 32.5 0 25.3366 0 16.5Z" fill="url(#paint0_linear_573_4347)"/>
<path d="M15.8671 7.83313C13.5496 7.83313 13.2588 7.84326 12.3485 7.88469C11.4401 7.92629 10.82 8.07011 10.2774 8.28113C9.71614 8.49909 9.24005 8.79065 8.76573 9.26514C8.29106 9.73946 7.9995 10.2156 7.78083 10.7766C7.56928 11.3194 7.42528 11.9397 7.38439 12.8478C7.34367 13.758 7.33301 14.049 7.33301 16.3666C7.33301 18.6841 7.34332 18.974 7.38456 19.8843C7.42634 20.7927 7.57017 21.4128 7.78101 21.9554C7.99915 22.5167 8.29071 22.9928 8.7652 23.4671C9.23934 23.9417 9.71543 24.234 10.2763 24.452C10.8193 24.663 11.4395 24.8068 12.3478 24.8484C13.258 24.8898 13.5487 24.9 15.8661 24.9C18.1838 24.9 18.4737 24.8898 19.384 24.8484C20.2924 24.8068 20.9132 24.663 21.4562 24.452C22.0173 24.234 22.4926 23.9417 22.9668 23.4671C23.4414 22.9928 23.733 22.5167 23.9517 21.9556C24.1615 21.4128 24.3055 20.7926 24.3481 19.8845C24.389 18.9742 24.3997 18.6841 24.3997 16.3666C24.3997 14.049 24.389 13.7582 24.3481 12.8479C24.3055 11.9395 24.1615 11.3194 23.9517 10.7768C23.733 10.2156 23.4414 9.73946 22.9668 9.26514C22.4921 8.79047 22.0174 8.49891 21.4556 8.28113C20.9116 8.07011 20.2912 7.92629 19.3827 7.88469C18.4725 7.84326 18.1827 7.83313 15.8645 7.83313H15.8671ZM15.1016 9.37092C15.3288 9.37057 15.5823 9.37092 15.8671 9.37092C18.1456 9.37092 18.4156 9.3791 19.3154 9.41999C20.1474 9.45804 20.5989 9.59706 20.8997 9.71386C21.298 9.86853 21.5819 10.0534 21.8804 10.3521C22.179 10.6508 22.3639 10.9352 22.5189 11.3334C22.6357 11.6339 22.7749 12.0854 22.8128 12.9174C22.8537 13.817 22.8626 14.0872 22.8626 16.3646C22.8626 18.642 22.8537 18.9122 22.8128 19.8117C22.7748 20.6438 22.6357 21.0953 22.5189 21.3958C22.3643 21.794 22.179 22.0775 21.8804 22.376C21.5817 22.6747 21.2981 22.8596 20.8997 23.0143C20.5993 23.1316 20.1474 23.2703 19.3154 23.3083C18.4158 23.3492 18.1456 23.3581 15.8671 23.3581C13.5885 23.3581 13.3185 23.3492 12.4189 23.3083C11.5869 23.2699 11.1354 23.1309 10.8344 23.0141C10.4362 22.8594 10.1517 22.6745 9.85303 22.3759C9.55436 22.0772 9.36947 21.7935 9.21445 21.395C9.09765 21.0946 8.95845 20.643 8.92058 19.811C8.87969 18.9115 8.87151 18.6412 8.87151 16.3625C8.87151 14.0837 8.87969 13.8149 8.92058 12.9153C8.95862 12.0833 9.09765 11.6317 9.21445 11.3309C9.36912 10.9327 9.55436 10.6483 9.85303 10.3496C10.1517 10.0509 10.4362 9.86604 10.8344 9.71102C11.1352 9.59368 11.5869 9.45501 12.4189 9.41679C13.2061 9.38123 13.5112 9.37057 15.1016 9.36879V9.37092ZM20.4222 10.7878C19.8569 10.7878 19.3982 11.246 19.3982 11.8115C19.3982 12.3768 19.8569 12.8355 20.4222 12.8355C20.9876 12.8355 21.4462 12.3768 21.4462 11.8115C21.4462 11.2461 20.9876 10.7875 20.4222 10.7875V10.7878ZM15.8671 11.9843C13.447 11.9843 11.4849 13.9464 11.4849 16.3666C11.4849 18.7867 13.447 20.7479 15.8671 20.7479C18.2873 20.7479 20.2487 18.7867 20.2487 16.3666C20.2487 13.9464 18.2871 11.9843 15.867 11.9843H15.8671ZM15.8671 13.5221C17.438 13.5221 18.7116 14.7955 18.7116 16.3666C18.7116 17.9374 17.438 19.211 15.8671 19.211C14.2961 19.211 13.0227 17.9374 13.0227 16.3666C13.0227 14.7955 14.2961 13.5221 15.8671 13.5221Z" fill="white"/>
<defs>
<linearGradient id="paint0_linear_573_4347" x1="35.6667" y1="-1.5" x2="-7.00001" y2="41.1667" gradientUnits="userSpaceOnUse">
<stop stop-color="#DA71EC"/>
<stop offset="0.258671" stop-color="#D94284"/>
<stop offset="0.612852" stop-color="#D15A4C"/>
<stop offset="1" stop-color="#E8B663"/>
</linearGradient>
</defs>
</svg>
