<svg width="24" height="25" viewBox="0 0 24 25" fill="none" xmlns="http://www.w3.org/2000/svg">
<path fill-rule="evenodd" clip-rule="evenodd" d="M3.58579 11.0858C3.96086 10.7107 4.46957 10.5 5 10.5C5.53043 10.5 6.03914 10.7107 6.41421 11.0858C6.78929 11.4609 7 11.9696 7 12.5C7 13.0304 6.78929 13.5391 6.41421 13.9142C6.03914 14.2893 5.53043 14.5 5 14.5C4.46957 14.5 3.96086 14.2893 3.58579 13.9142C3.21071 13.5391 3 13.0304 3 12.5C3 11.9696 3.21071 11.4609 3.58579 11.0858ZM10.5858 11.0858C10.9609 10.7107 11.4696 10.5 12 10.5C12.5304 10.5 13.0391 10.7107 13.4142 11.0858C13.7893 11.4609 14 11.9696 14 12.5C14 13.0304 13.7893 13.5391 13.4142 13.9142C13.0391 14.2893 12.5304 14.5 12 14.5C11.4696 14.5 10.9609 14.2893 10.5858 13.9142C10.2107 13.5391 10 13.0304 10 12.5C10 11.9696 10.2107 11.4609 10.5858 11.0858ZM17.5858 11.0858C17.9609 10.7107 18.4696 10.5 19 10.5C19.5304 10.5 20.0391 10.7107 20.4142 11.0858C20.7893 11.4609 21 11.9696 21 12.5C21 13.0304 20.7893 13.5391 20.4142 13.9142C20.0391 14.2893 19.5304 14.5 19 14.5C18.4696 14.5 17.9609 14.2893 17.5858 13.9142C17.2107 13.5391 17 13.0304 17 12.5C17 11.9696 17.2107 11.4609 17.5858 11.0858Z" fill="#333333"/>
</svg>
