<svg width="24" height="25" viewBox="0 0 24 25" fill="none" xmlns="http://www.w3.org/2000/svg">
<path fill-rule="evenodd" clip-rule="evenodd" d="M15.0769 3.96808C13.3217 3.3351 11.4139 3.25886 9.6138 3.74976C7.81367 4.24066 6.20875 5.2748 5.01785 6.7112C3.82696 8.14759 3.10806 9.91632 2.95916 11.7762C2.81027 13.6361 3.23863 15.4967 4.18584 17.1043C5.13304 18.7118 6.553 19.9881 8.25211 20.7592C9.95121 21.5302 11.8468 21.7584 13.6803 21.4127L13.8527 22.3269C11.8311 22.708 9.74108 22.4564 7.86771 21.6063C5.99434 20.7562 4.42874 19.3489 3.38438 17.5765C2.34002 15.8041 1.86773 13.7527 2.0319 11.702C2.19606 9.65133 2.9887 7.70119 4.30174 6.11747C5.61477 4.53376 7.3843 3.39355 9.36906 2.8523C11.3538 2.31105 13.4572 2.39511 15.3924 3.09302C17.3277 3.79092 19.0006 5.0687 20.183 6.75215C21.3655 8.43559 22 10.4428 22 12.5H21.0698C21.0698 10.6341 20.4943 8.81368 19.4218 7.28683C18.3494 5.75999 16.8321 4.60107 15.0769 3.96808Z" fill="#6255F6"/>
</svg>
