<svg width="18" height="21" viewBox="0 0 18 21" fill="none" xmlns="http://www.w3.org/2000/svg">
<path fill-rule="evenodd" clip-rule="evenodd" d="M9 2.00114C7.52513 2.00114 6.08339 2.42666 4.85708 3.22389C3.63076 4.02112 2.67496 5.15426 2.11054 6.48001C1.54611 7.80576 1.39841 9.26458 1.68612 10.672C1.97382 12.0794 2.68397 13.3722 3.72679 14.3869C3.72677 14.3869 3.72682 14.3869 3.72679 14.3869L8.09184 18.6329C8.33292 18.8672 8.65975 18.9989 9.00051 18.9989C9.34128 18.9989 9.66811 18.8672 9.90919 18.6329L14.2731 14.387C15.316 13.3722 16.0262 12.0794 16.3139 10.672C16.6016 9.26458 16.4539 7.80576 15.8895 6.48001C15.325 5.15426 14.3692 4.02112 13.1429 3.22389C11.9166 2.42666 10.4749 2.00114 9 2.00114ZM3.99992 1.97573C5.47995 1.01356 7.21999 0.5 9 0.5C10.78 0.5 12.5201 1.01356 14.0001 1.97573C15.4801 2.93791 16.6337 4.30548 17.3149 5.90553C17.9961 7.50557 18.1743 9.26622 17.8271 10.9648C17.4799 12.6635 16.6227 14.2237 15.3641 15.4484L10.9999 19.6946C10.4695 20.2102 9.7502 20.5 9.00051 20.5C8.25082 20.5 7.5318 20.2104 7.00142 19.6949L2.63596 15.4485C1.37733 14.2238 0.520132 12.6635 0.172903 10.9648C-0.174327 9.26622 0.00393031 7.50557 0.685132 5.90553C1.36633 4.30548 2.51989 2.93791 3.99992 1.97573ZM6.27259 6.6027C6.99594 5.8989 7.97702 5.50352 9 5.50352C10.023 5.50352 11.0041 5.8989 11.7274 6.6027C12.4508 7.3065 12.8571 8.26105 12.8571 9.25637C12.8571 10.2517 12.4508 11.2062 11.7274 11.91C11.0041 12.6138 10.023 13.0092 9 13.0092C7.97702 13.0092 6.99594 12.6138 6.27259 11.91C5.54924 11.2062 5.14286 10.2517 5.14286 9.25637C5.14286 8.26105 5.54924 7.3065 6.27259 6.6027ZM9 7.00466C8.38621 7.00466 7.79757 7.24189 7.36355 7.66417C6.92954 8.08645 6.68572 8.65918 6.68572 9.25637C6.68572 9.85356 6.92954 10.4263 7.36355 10.8486C7.79757 11.2709 8.38621 11.5081 9 11.5081C9.61379 11.5081 10.2024 11.2709 10.6364 10.8486C11.0705 10.4263 11.3143 9.85356 11.3143 9.25637C11.3143 8.65918 11.0705 8.08645 10.6364 7.66417C10.2024 7.24189 9.61379 7.00466 9 7.00466Z" fill="#333333"/>
</svg>
