<svg width="24" height="25" viewBox="0 0 24 25" fill="none" xmlns="http://www.w3.org/2000/svg">
<path d="M20.8912 2.506L20.9972 2.5L21.1272 2.508L21.2172 2.524L21.3402 2.559L21.4472 2.605L21.5472 2.662L21.6372 2.729L21.7192 2.804L21.7712 2.863L21.8532 2.979L21.9052 3.075C21.9522 3.175 21.9822 3.281 21.9952 3.391L22.0002 3.497C22.0002 3.572 21.9922 3.646 21.9762 3.717L21.9412 3.84L15.4092 21.917C15.2854 22.1866 15.0868 22.4149 14.837 22.575C14.5873 22.7351 14.2968 22.8201 14.0002 22.82C13.733 22.8208 13.4702 22.7525 13.2373 22.6216C13.0044 22.4907 12.8093 22.3017 12.6712 22.073L12.6062 21.946L9.25418 15.244L2.58418 11.908C2.33738 11.7951 2.12454 11.6194 1.96695 11.3985C1.80936 11.1775 1.71254 10.9191 1.68618 10.649L1.68018 10.5C1.68018 9.94 1.98118 9.428 2.52118 9.13L2.66118 9.06L20.6782 2.554L20.7842 2.524L20.8912 2.506Z" fill="#333333"/>
</svg>
