<svg width="24" height="25" viewBox="0 0 24 25" fill="none" xmlns="http://www.w3.org/2000/svg">
<path fill-rule="evenodd" clip-rule="evenodd" d="M12 4.03846C11.1102 4.03846 10.2569 4.38965 9.62777 5.01477C8.99862 5.63989 8.64516 6.48774 8.64516 7.3718V10.7051H15.3548V7.3718C15.3548 6.48774 15.0014 5.63989 14.3722 5.01477C13.7431 4.38965 12.8898 4.03846 12 4.03846ZM16.9032 10.7051V7.3718C16.9032 6.07971 16.3866 4.84055 15.4671 3.92692C14.5476 3.01328 13.3004 2.5 12 2.5C10.6996 2.5 9.45243 3.01328 8.5329 3.92692C7.61336 4.84055 7.09677 6.07971 7.09677 7.3718V10.7051H6.83871C6.08584 10.7051 5.3638 11.0023 4.83144 11.5312C4.29908 12.0602 4 12.7776 4 13.5256V19.6795C4 20.4275 4.29908 21.1449 4.83144 21.6739C5.3638 22.2028 6.08584 22.5 6.83871 22.5H17.1613C17.9142 22.5 18.6362 22.2028 19.1686 21.6739C19.7009 21.1449 20 20.4275 20 19.6795V13.5256C20 12.7776 19.7009 12.0602 19.1686 11.5312C18.6362 11.0023 17.9142 10.7051 17.1613 10.7051H16.9032ZM6.83871 12.2436C6.4965 12.2436 6.1683 12.3787 5.92631 12.6191C5.68433 12.8595 5.54839 13.1856 5.54839 13.5256V19.6795C5.54839 20.0195 5.68433 20.3456 5.92631 20.586C6.1683 20.8265 6.4965 20.9615 6.83871 20.9615H17.1613C17.5035 20.9615 17.8317 20.8265 18.0737 20.586C18.3157 20.3456 18.4516 20.0195 18.4516 19.6795V13.5256C18.4516 13.1856 18.3157 12.8595 18.0737 12.6191C17.8317 12.3787 17.5035 12.2436 17.1613 12.2436H6.83871ZM10.7226 15.3334C11.0614 14.9968 11.5209 14.8077 12 14.8077C12.4791 14.8077 12.9386 14.9968 13.2774 15.3334C13.6161 15.67 13.8065 16.1265 13.8065 16.6026C13.8065 17.0786 13.6161 17.5351 13.2774 17.8717C12.9386 18.2083 12.4791 18.3974 12 18.3974C11.5209 18.3974 11.0614 18.2083 10.7226 17.8717C10.3839 17.5351 10.1935 17.0786 10.1935 16.6026C10.1935 16.1265 10.3839 15.67 10.7226 15.3334ZM12 16.3462C11.9316 16.3462 11.8659 16.3732 11.8175 16.4213C11.7691 16.4693 11.7419 16.5346 11.7419 16.6026C11.7419 16.6706 11.7691 16.7358 11.8175 16.7839C11.8659 16.832 11.9316 16.859 12 16.859C12.0684 16.859 12.1341 16.832 12.1825 16.7839C12.2309 16.7358 12.2581 16.6706 12.2581 16.6026C12.2581 16.5346 12.2309 16.4693 12.1825 16.4213C12.1341 16.3732 12.0684 16.3462 12 16.3462Z" fill="#333333"/>
</svg>
