<svg width="19" height="20" viewBox="0 0 19 20" fill="none" xmlns="http://www.w3.org/2000/svg">
<path fill-rule="evenodd" clip-rule="evenodd" d="M3.85135 2.04054C3.51087 2.04054 3.18433 2.1758 2.94358 2.41655C2.70282 2.65731 2.56757 2.98384 2.56757 3.32432V9.48649C2.56757 9.91189 2.22271 10.2568 1.7973 10.2568C1.37189 10.2568 1.02703 9.91189 1.02703 9.48649V3.32432C1.02703 2.57527 1.32459 1.85689 1.85425 1.32723C2.38392 0.797562 3.10229 0.5 3.85135 0.5H16.1757C16.9247 0.5 17.6431 0.797562 18.1728 1.32723C18.7024 1.85689 19 2.57527 19 3.32432V15.6486C19 16.3977 18.7024 17.1161 18.1728 17.6457C17.6431 18.1754 16.9247 18.473 16.1757 18.473H10.0135C9.58811 18.473 9.24324 18.1281 9.24324 17.7027C9.24324 17.2773 9.58811 16.9324 10.0135 16.9324H16.1757C16.5162 16.9324 16.8427 16.7972 17.0834 16.5564C17.3242 16.3157 17.4595 15.9891 17.4595 15.6486V3.32432C17.4595 2.98384 17.3242 2.65731 17.0834 2.41655C16.8427 2.1758 16.5162 2.04054 16.1757 2.04054H3.85135ZM9.24324 5.37838C9.24324 4.95297 9.58811 4.60811 10.0135 4.60811H14.1216C14.547 4.60811 14.8919 4.95297 14.8919 5.37838V9.48649C14.8919 9.91189 14.547 10.2568 14.1216 10.2568C13.6962 10.2568 13.3514 9.91189 13.3514 9.48649V7.23798L9.53115 11.0582C9.23034 11.359 8.74263 11.359 8.44182 11.0582C8.14101 10.7574 8.14101 10.2697 8.44182 9.96885L12.262 6.14865H10.0135C9.58811 6.14865 9.24324 5.80379 9.24324 5.37838ZM1.7973 14.3649C1.7292 14.3649 1.66389 14.3919 1.61574 14.4401C1.56759 14.4882 1.54054 14.5535 1.54054 14.6216V17.7027C1.54054 17.7708 1.56759 17.8361 1.61574 17.8843C1.66389 17.9324 1.7292 17.9595 1.7973 17.9595H4.87838C4.94648 17.9595 5.01178 17.9324 5.05993 17.8843C5.10808 17.8361 5.13514 17.7708 5.13514 17.7027V14.6216C5.13514 14.5535 5.10808 14.4882 5.05993 14.4401C5.01178 14.3919 4.94648 14.3649 4.87838 14.3649H1.7973ZM0.526416 13.3507C0.863476 13.0137 1.32063 12.8243 1.7973 12.8243H4.87838C5.35505 12.8243 5.8122 13.0137 6.14926 13.3507C6.48632 13.6878 6.67568 14.1449 6.67568 14.6216V17.7027C6.67568 18.1794 6.48632 18.6365 6.14926 18.9736C5.8122 19.3106 5.35505 19.5 4.87838 19.5H1.7973C1.32063 19.5 0.863476 19.3106 0.526416 18.9736C0.189357 18.6365 0 18.1794 0 17.7027V14.6216C0 14.1449 0.189357 13.6878 0.526416 13.3507Z" fill="#333333"/>
</svg>
