<svg width="24" height="25" viewBox="0 0 24 25" fill="none" xmlns="http://www.w3.org/2000/svg">
<path fill-rule="evenodd" clip-rule="evenodd" d="M6 5.25C5.66848 5.25 5.35054 5.3817 5.11612 5.61612C4.8817 5.85054 4.75 6.16848 4.75 6.5V12.5C4.75 12.9142 4.41421 13.25 4 13.25C3.58579 13.25 3.25 12.9142 3.25 12.5V6.5C3.25 5.77065 3.53973 5.07118 4.05546 4.55546C4.57118 4.03973 5.27065 3.75 6 3.75H18C18.7293 3.75 19.4288 4.03973 19.9445 4.55546C20.4603 5.07118 20.75 5.77065 20.75 6.5V18.5C20.75 19.2293 20.4603 19.9288 19.9445 20.4445C19.4288 20.9603 18.7293 21.25 18 21.25H12C11.5858 21.25 11.25 20.9142 11.25 20.5C11.25 20.0858 11.5858 19.75 12 19.75H18C18.3315 19.75 18.6495 19.6183 18.8839 19.3839C19.1183 19.1495 19.25 18.8315 19.25 18.5V6.5C19.25 6.16848 19.1183 5.85054 18.8839 5.61612C18.6495 5.3817 18.3315 5.25 18 5.25H6ZM16.5303 7.96967C16.8232 8.26256 16.8232 8.73744 16.5303 9.03033L12.8107 12.75H15C15.4142 12.75 15.75 13.0858 15.75 13.5C15.75 13.9142 15.4142 14.25 15 14.25H11C10.5858 14.25 10.25 13.9142 10.25 13.5V9.5C10.25 9.08579 10.5858 8.75 11 8.75C11.4142 8.75 11.75 9.08579 11.75 9.5V11.6893L15.4697 7.96967C15.7626 7.67678 16.2374 7.67678 16.5303 7.96967ZM4 17.25C3.93369 17.25 3.87011 17.2763 3.82322 17.3232C3.77634 17.3701 3.75 17.4337 3.75 17.5V20.5C3.75 20.5663 3.77634 20.6299 3.82322 20.6768C3.87011 20.7237 3.93369 20.75 4 20.75H7C7.06631 20.75 7.12989 20.7237 7.17678 20.6768C7.22366 20.6299 7.25 20.5663 7.25 20.5V17.5C7.25 17.4337 7.22366 17.3701 7.17678 17.3232C7.12989 17.2763 7.06631 17.25 7 17.25H4ZM2.76256 16.2626C3.09075 15.9344 3.53587 15.75 4 15.75H7C7.46413 15.75 7.90925 15.9344 8.23744 16.2626C8.56563 16.5908 8.75 17.0359 8.75 17.5V20.5C8.75 20.9641 8.56563 21.4092 8.23744 21.7374C7.90925 22.0656 7.46413 22.25 7 22.25H4C3.53587 22.25 3.09075 22.0656 2.76256 21.7374C2.43437 21.4092 2.25 20.9641 2.25 20.5V17.5C2.25 17.0359 2.43437 16.5908 2.76256 16.2626Z" fill="#333333"/>
</svg>
