<svg width="20" height="23" viewBox="0 0 20 23" fill="none" xmlns="http://www.w3.org/2000/svg">
<path fill-rule="evenodd" clip-rule="evenodd" d="M2.56885 7.44511C2.56885 4.23407 5.5566 0.75 10 0.75C14.4434 0.75 17.4312 4.23407 17.4312 7.44511C17.4312 8.2689 17.536 8.84572 17.6791 9.28929C17.8227 9.73427 18.014 10.0762 18.2344 10.4451C18.257 10.4829 18.2801 10.5213 18.3037 10.5605C18.5048 10.8946 18.7382 11.2825 18.9164 11.7487C19.1219 12.2864 19.25 12.9102 19.25 13.7205C19.25 13.7421 19.2491 13.7638 19.2472 13.7853C19.1745 14.6232 18.9256 15.3584 18.452 15.971C17.9804 16.5809 17.3291 17.0137 16.5437 17.3213C15.0092 17.9223 12.817 18.0976 10 18.0976C7.18431 18.0976 4.99217 17.9251 3.45762 17.3257C2.67201 17.0188 2.02031 16.5862 1.54845 15.9754C1.07461 15.362 0.825714 14.6254 0.752809 13.7854C0.750937 13.7638 0.75 13.7422 0.75 13.7205C0.75 12.9102 0.878124 12.2864 1.08361 11.7487C1.26179 11.2825 1.49524 10.8946 1.69634 10.5604C1.71991 10.5213 1.74304 10.4828 1.76558 10.4451C1.986 10.0762 2.17732 9.73427 2.32088 9.28929C2.464 8.84572 2.56885 8.2689 2.56885 7.44511ZM10 2.25C6.35295 2.25 4.06885 5.09421 4.06885 7.44511C4.06885 8.40147 3.94634 9.13642 3.74842 9.74987C3.55096 10.3619 3.28756 10.8223 3.05327 11.2144C3.03009 11.2532 3.00741 11.291 2.98522 11.328C2.77775 11.674 2.61303 11.9486 2.48478 12.2842C2.35156 12.6328 2.25342 13.0648 2.25009 13.6876C2.30676 14.2884 2.47738 14.7243 2.73548 15.0584C3.00011 15.4009 3.40043 15.6929 4.00342 15.9285C5.24608 16.4139 7.17746 16.5976 10 16.5976C12.8223 16.5976 14.7541 16.4113 15.9967 15.9246C16.6 15.6884 17.0006 15.3959 17.2652 15.0535C17.5233 14.7197 17.6935 14.2852 17.7499 13.6876C17.7466 13.0648 17.6484 12.6328 17.5152 12.2842C17.387 11.9486 17.2222 11.674 17.0148 11.328C16.9926 11.291 16.9699 11.2532 16.9467 11.2144C16.7124 10.8223 16.449 10.3619 16.2516 9.74987C16.0537 9.13642 15.9312 8.40147 15.9312 7.44511C15.9312 5.09421 13.6471 2.25 10 2.25ZM7.01819 19.7993C7.32629 19.5225 7.80049 19.5478 8.07733 19.8559C9.15363 21.0538 10.7623 21.0425 11.8315 19.8553C12.1087 19.5475 12.5829 19.5227 12.8907 19.7999C13.1985 20.0771 13.2233 20.5513 12.9461 20.8591C11.287 22.7014 8.63966 22.726 6.96159 20.8585C6.68474 20.5504 6.71008 20.0762 7.01819 19.7993Z" fill="#333333"/>
</svg>
