<svg width="24" height="25" viewBox="0 0 24 25" fill="none" xmlns="http://www.w3.org/2000/svg">
<path d="M8.57143 3.5H6.28571C5.67951 3.5 5.09812 3.73705 4.66947 4.15901C4.24082 4.58097 4 5.15326 4 5.75V19.25C4 19.8467 4.24082 20.419 4.66947 20.841C5.09812 21.2629 5.67951 21.5 6.28571 21.5H8.57143C9.17764 21.5 9.75902 21.2629 10.1877 20.841C10.6163 20.419 10.8571 19.8467 10.8571 19.25V5.75C10.8571 5.15326 10.6163 4.58097 10.1877 4.15901C9.75902 3.73705 9.17764 3.5 8.57143 3.5Z" fill="#333333"/>
<path d="M17.7143 3.5H15.4286C14.8224 3.5 14.241 3.73705 13.8123 4.15901C13.3837 4.58097 13.1429 5.15326 13.1429 5.75V19.25C13.1429 19.8467 13.3837 20.419 13.8123 20.841C14.241 21.2629 14.8224 21.5 15.4286 21.5H17.7143C18.3205 21.5 18.9019 21.2629 19.3305 20.841C19.7592 20.419 20 19.8467 20 19.25V5.75C20 5.15326 19.7592 4.58097 19.3305 4.15901C18.9019 3.73705 18.3205 3.5 17.7143 3.5Z" fill="#333333"/>
</svg>
