<svg width="24" height="25" viewBox="0 0 24 25" fill="none" xmlns="http://www.w3.org/2000/svg">
<path d="M6 4.49979V20.4998C5.99995 20.6777 6.04737 20.8524 6.13738 21.0059C6.22739 21.1594 6.35672 21.2861 6.51202 21.3729C6.66733 21.4598 6.84299 21.5036 7.02088 21.4999C7.19878 21.4961 7.37245 21.445 7.524 21.3518L20.524 13.3518C20.6696 13.2623 20.7898 13.137 20.8733 12.9879C20.9567 12.8387 21.0005 12.6707 21.0005 12.4998C21.0005 12.3289 20.9567 12.1609 20.8733 12.0117C20.7898 11.8626 20.6696 11.7373 20.524 11.6478L7.524 3.64779C7.37245 3.55456 7.19878 3.50345 7.02088 3.49973C6.84299 3.49601 6.66733 3.53983 6.51202 3.62665C6.35672 3.71348 6.22739 3.84017 6.13738 3.99366C6.04737 4.14714 5.99995 4.32186 6 4.49979Z" fill="#333333"/>
</svg>
