<svg width="20" height="21" viewBox="0 0 20 21" fill="none" xmlns="http://www.w3.org/2000/svg">
<path fill-rule="evenodd" clip-rule="evenodd" d="M6.17317 1.2612C7.38642 0.758658 8.68678 0.5 10 0.5C11.3132 0.5 12.6136 0.758658 13.8268 1.2612C15.0401 1.76375 16.1425 2.50035 17.0711 3.42893C17.9997 4.35752 18.7362 5.45991 19.2388 6.67317C19.7413 7.88642 20 9.18678 20 10.5C20 11.8132 19.7413 13.1136 19.2388 14.3268C18.7362 15.5401 17.9997 16.6425 17.0711 17.5711C16.1425 18.4997 15.0401 19.2362 13.8268 19.7388C12.6136 20.2413 11.3132 20.5 10 20.5C8.68678 20.5 7.38642 20.2413 6.17317 19.7388C4.95991 19.2362 3.85752 18.4997 2.92893 17.5711C2.00035 16.6425 1.26375 15.5401 0.761205 14.3268C0.258658 13.1136 0 11.8132 0 10.5C0 9.18678 0.258658 7.88642 0.761205 6.67317C1.26375 5.45991 2.00035 4.35752 2.92893 3.42893C3.85752 2.50035 4.95991 1.76375 6.17317 1.2612ZM10 2.03846C8.88881 2.03846 7.78851 2.25733 6.76191 2.68256C5.73531 3.10779 4.80252 3.73106 4.01679 4.51679C3.23106 5.30252 2.60779 6.23531 2.18256 7.26191C1.75733 8.28851 1.53846 9.38881 1.53846 10.5C1.53846 11.6112 1.75733 12.7115 2.18256 13.7381C2.60779 14.7647 3.23106 15.6975 4.01679 16.4832C4.80252 17.2689 5.73531 17.8922 6.76191 18.3174C7.78851 18.7427 8.88881 18.9615 10 18.9615C11.1112 18.9615 12.2115 18.7427 13.2381 18.3174C14.2647 17.8922 15.1975 17.2689 15.9832 16.4832C16.7689 15.6975 17.3922 14.7647 17.8174 13.7381C18.2427 12.7115 18.4615 11.6112 18.4615 10.5C18.4615 9.38881 18.2427 8.28851 17.8174 7.26191C17.3922 6.23531 16.7689 5.30252 15.9832 4.51679C15.1975 3.73106 14.2647 3.10779 13.2381 2.68256C12.2115 2.25733 11.1112 2.03846 10 2.03846ZM10 6.65385C10.4248 6.65385 10.7692 6.99824 10.7692 7.42308V9.73077H13.0769C13.5018 9.73077 13.8462 10.0752 13.8462 10.5C13.8462 10.9248 13.5018 11.2692 13.0769 11.2692H10.7692V13.5769C10.7692 14.0018 10.4248 14.3462 10 14.3462C9.57517 14.3462 9.23077 14.0018 9.23077 13.5769V11.2692H6.92308C6.49824 11.2692 6.15385 10.9248 6.15385 10.5C6.15385 10.0752 6.49824 9.73077 6.92308 9.73077H9.23077V7.42308C9.23077 6.99824 9.57517 6.65385 10 6.65385Z" fill="#333333"/>
</svg>
