<svg width="24" height="25" viewBox="0 0 24 25" fill="none" xmlns="http://www.w3.org/2000/svg">
<path fill-rule="evenodd" clip-rule="evenodd" d="M6.90688 3.10506C7.87126 2.7056 8.90488 2.5 9.94872 2.5C10.9926 2.5 12.0262 2.7056 12.9906 3.10506C13.9549 3.50452 14.8312 4.09002 15.5693 4.82813C16.3074 5.56623 16.8929 6.44249 17.2924 7.40688C17.6918 8.37126 17.8974 9.40488 17.8974 10.4487C17.8974 11.4926 17.6918 12.5262 17.2924 13.4906C16.9914 14.2172 16.5848 14.8938 16.0869 15.499L21.7747 21.1868C22.0751 21.4872 22.0751 21.9743 21.7747 22.2747C21.4743 22.5751 20.9872 22.5751 20.6868 22.2747L14.999 16.5869C14.3938 17.0848 13.7172 17.4914 12.9906 17.7924C12.0262 18.1918 10.9926 18.3974 9.94872 18.3974C8.90488 18.3974 7.87126 18.1918 6.90688 17.7924C5.94249 17.3929 5.06623 16.8074 4.32813 16.0693C3.59002 15.3312 3.00452 14.4549 2.60506 13.4906C2.2056 12.5262 2 11.4926 2 10.4487C2 9.40488 2.2056 8.37126 2.60506 7.40688C3.00452 6.44249 3.59002 5.56623 4.32813 4.82813C5.06623 4.09002 5.94249 3.50452 6.90688 3.10506ZM9.94872 4.03846C9.10691 4.03846 8.27335 4.20427 7.49562 4.52641C6.71789 4.84856 6.01123 5.32073 5.41598 5.91598C4.82073 6.51123 4.34856 7.21789 4.02641 7.99562C3.70427 8.77335 3.53846 9.60691 3.53846 10.4487C3.53846 11.2905 3.70427 12.1241 4.02641 12.9018C4.34856 13.6795 4.82073 14.3862 5.41598 14.9815C6.01123 15.5767 6.71789 16.0489 7.49562 16.371C8.27335 16.6932 9.10691 16.859 9.94872 16.859C10.7905 16.859 11.6241 16.6932 12.4018 16.371C13.1795 16.0489 13.8862 15.5767 14.4815 14.9815C15.0767 14.3862 15.5489 13.6795 15.871 12.9018C16.1932 12.1241 16.359 11.2905 16.359 10.4487C16.359 9.60691 16.1932 8.77335 15.871 7.99562C15.5489 7.21789 15.0767 6.51123 14.4815 5.91598C13.8862 5.32073 13.1795 4.84856 12.4018 4.52641C11.6241 4.20427 10.7905 4.03846 9.94872 4.03846Z" fill="#333333"/>
</svg>
