<svg width="24" height="25" viewBox="0 0 24 25" fill="none" xmlns="http://www.w3.org/2000/svg">
<path fill-rule="evenodd" clip-rule="evenodd" d="M12.9704 4.80135C12.7236 3.78416 11.2764 3.78416 11.0296 4.80135L11.0295 4.80176C10.6234 6.47182 8.71472 7.2635 7.24448 6.36959L7.24409 6.36935C6.34908 5.82446 5.32568 6.84894 5.87026 7.74287C6.07815 8.08391 6.20259 8.46921 6.23346 8.86742C6.26434 9.26573 6.20074 9.6657 6.04783 10.0348C5.89492 10.4039 5.65702 10.7316 5.3535 10.9914C5.05003 11.2511 4.68954 11.4355 4.30135 11.5296C3.28416 11.7764 3.28416 13.2236 4.30135 13.4704L4.30177 13.4705C4.68969 13.5648 5.04988 13.7494 5.35306 14.0091C5.65623 14.2689 5.89385 14.5965 6.04658 14.9653C6.19931 15.3342 6.26286 15.7339 6.23205 16.1319C6.20124 16.5299 6.07694 16.9151 5.86927 17.2561C5.32457 18.151 6.34899 19.1743 7.24287 18.6297C7.58391 18.4219 7.96921 18.2974 8.36742 18.2665C8.76573 18.2357 9.1657 18.2993 9.53478 18.4522C9.90386 18.6051 10.2316 18.843 10.4914 19.1465C10.7511 19.45 10.9355 19.8105 11.0296 20.1986C11.2764 21.2158 12.7236 21.2158 12.9704 20.1986L12.9705 20.1982C13.0648 19.8103 13.2494 19.4501 13.5091 19.1469C13.7689 18.8438 14.0965 18.6062 14.4653 18.4534C14.8342 18.3007 15.2339 18.2371 15.6319 18.268C16.0299 18.2988 16.4151 18.4231 16.7561 18.6307C17.651 19.1754 18.6743 18.151 18.1297 17.2571C17.9219 16.9161 17.7974 16.5308 17.7665 16.1326C17.7357 15.7343 17.7993 15.3343 17.9522 14.9652C18.1051 14.5961 18.343 14.2684 18.6465 14.0086C18.95 13.7489 19.3105 13.5645 19.6986 13.4704C20.7158 13.2236 20.7158 11.7764 19.6986 11.5296L19.6982 11.5295C19.3103 11.4352 18.9501 11.2506 18.6469 10.9909C18.3438 10.7311 18.1062 10.4035 17.9534 10.0347C17.8007 9.66582 17.7371 9.26613 17.768 8.86809C17.7988 8.47006 17.9231 8.08491 18.1307 7.74395C18.6754 6.84898 17.651 5.8257 16.7571 6.37026C16.4161 6.57815 16.0308 6.70259 15.6326 6.73346C15.2343 6.76434 14.8343 6.70074 14.4652 6.54783C14.0961 6.39492 13.7684 6.15702 13.5086 5.8535C13.2489 5.55003 13.0645 5.18954 12.9704 4.80135ZM9.5346 4.43824C10.162 1.85378 13.8385 1.85392 14.4655 4.43865L14.4655 4.43886C14.5026 4.59172 14.5752 4.73367 14.6775 4.85317C14.7797 4.97266 14.9088 5.06632 15.0541 5.12652C15.1994 5.18672 15.3568 5.21176 15.5137 5.1996C15.6705 5.18745 15.8222 5.13843 15.9565 5.05655L15.9567 5.05641C18.2279 3.67279 20.8281 6.27194 19.4447 8.54412L19.4447 8.54426C19.3629 8.67849 19.314 8.83012 19.3018 8.98682C19.2897 9.14353 19.3147 9.30088 19.3748 9.4461C19.435 9.59132 19.5285 9.7203 19.6479 9.82256C19.7671 9.92472 19.9088 9.99733 20.0614 10.0345C22.6462 10.6616 22.6462 14.3384 20.0614 14.9655L20.0611 14.9655C19.9083 15.0026 19.7663 15.0752 19.6468 15.1775C19.5273 15.2797 19.4337 15.4088 19.3735 15.5541C19.3133 15.6994 19.2882 15.8568 19.3004 16.0137C19.3126 16.1705 19.3616 16.3222 19.4434 16.4565L19.4436 16.4567C20.8272 18.7279 18.2281 21.3281 15.9559 19.9447L15.9557 19.9447C15.8215 19.8629 15.6699 19.814 15.5132 19.8018C15.3565 19.7897 15.1991 19.8147 15.0539 19.8748C14.9087 19.935 14.7797 20.0285 14.6774 20.1479C14.5753 20.2671 14.5027 20.4088 14.4655 20.5614C13.8384 23.1462 10.1616 23.1462 9.5345 20.5614L9.53445 20.5611C9.49742 20.4083 9.42481 20.2663 9.32254 20.1468C9.22027 20.0273 9.09124 19.9337 8.94593 19.8735C8.80063 19.8133 8.64316 19.7882 8.48635 19.8004C8.32954 19.8126 8.17781 19.8616 8.04352 19.9434L8.04328 19.9436C5.77208 21.3272 3.17195 18.7281 4.55526 16.4559L4.55535 16.4557C4.63711 16.3215 4.68605 16.1699 4.69818 16.0132C4.7103 15.8565 4.68529 15.6991 4.62516 15.5539C4.56503 15.4087 4.47148 15.2797 4.35212 15.1774C4.23287 15.0753 4.09121 15.0027 3.93865 14.9655C1.35378 14.3384 1.35378 10.6616 3.93865 10.0345L3.93886 10.0345C4.09172 9.99742 4.23367 9.92481 4.35317 9.82254C4.47266 9.72027 4.56632 9.59124 4.62652 9.44593C4.68672 9.30063 4.71176 9.14316 4.6996 8.98635C4.68745 8.82954 4.63843 8.67781 4.55655 8.54352L4.55641 8.54328C3.17287 6.27221 5.77165 3.67224 8.04373 5.05503C8.62464 5.40823 9.37425 5.09651 9.5345 4.43865M9.28036 9.78036C10.0017 9.05906 10.9799 8.65385 12 8.65385C13.0201 8.65385 13.9983 9.05906 14.7196 9.78036C15.4409 10.5017 15.8462 11.4799 15.8462 12.5C15.8462 13.5201 15.4409 14.4983 14.7196 15.2196C13.9983 15.9409 13.0201 16.3462 12 16.3462C10.9799 16.3462 10.0017 15.9409 9.28036 15.2196C8.55906 14.4983 8.15385 13.5201 8.15385 12.5C8.15385 11.4799 8.55906 10.5017 9.28036 9.78036ZM12 10.1923C11.388 10.1923 10.801 10.4354 10.3682 10.8682C9.93544 11.301 9.69231 11.888 9.69231 12.5C9.69231 13.112 9.93544 13.699 10.3682 14.1318C10.801 14.5646 11.388 14.8077 12 14.8077C12.612 14.8077 13.199 14.5646 13.6318 14.1318C14.0646 13.699 14.3077 13.112 14.3077 12.5C14.3077 11.888 14.0646 11.301 13.6318 10.8682C13.199 10.4354 12.612 10.1923 12 10.1923Z" fill="#333333"/>
</svg>
