<svg width="24" height="25" viewBox="0 0 24 25" fill="none" xmlns="http://www.w3.org/2000/svg">
<path fill-rule="evenodd" clip-rule="evenodd" d="M11.4526 2.7253C11.7549 2.4249 12.2451 2.4249 12.5474 2.7253L15.6442 5.80223C15.9466 6.10263 15.9466 6.58968 15.6442 6.89008C15.3419 7.19049 14.8517 7.19049 14.5493 6.89008L12.7742 5.12632V14.5513C12.7742 14.9761 12.4276 15.3205 12 15.3205C11.5724 15.3205 11.2258 14.9761 11.2258 14.5513V5.12632L9.45066 6.89008C9.14832 7.19049 8.65813 7.19049 8.35579 6.89008C8.05345 6.58968 8.05345 6.10263 8.35579 5.80223L11.4526 2.7253ZM4.83144 9.47996C5.3638 8.95101 6.08584 8.65385 6.83871 8.65385H7.87097C8.29854 8.65385 8.64516 8.99824 8.64516 9.42308C8.64516 9.84791 8.29854 10.1923 7.87097 10.1923H6.83871C6.4965 10.1923 6.1683 10.3274 5.92631 10.5678C5.68433 10.8082 5.54839 11.1343 5.54839 11.4744V19.6795C5.54839 20.0195 5.68433 20.3456 5.92631 20.586C6.1683 20.8265 6.4965 20.9615 6.83871 20.9615H17.1613C17.5035 20.9615 17.8317 20.8265 18.0737 20.586C18.3157 20.3456 18.4516 20.0195 18.4516 19.6795V11.4744C18.4516 11.1343 18.3157 10.8082 18.0737 10.5678C17.8317 10.3274 17.5035 10.1923 17.1613 10.1923H16.129C15.7015 10.1923 15.3548 9.84791 15.3548 9.42308C15.3548 8.99824 15.7015 8.65385 16.129 8.65385H17.1613C17.9142 8.65385 18.6362 8.95101 19.1686 9.47996C19.7009 10.0089 20 10.7263 20 11.4744V19.6795C20 20.4275 19.7009 21.1449 19.1686 21.6739C18.6362 22.2028 17.9142 22.5 17.1613 22.5H6.83871C6.08584 22.5 5.3638 22.2028 4.83144 21.6739C4.29908 21.1449 4 20.4275 4 19.6795V11.4744C4 10.7263 4.29908 10.0089 4.83144 9.47996Z" fill="#333333"/>
</svg>
