<svg width="24" height="25" viewBox="0 0 24 25" fill="none" xmlns="http://www.w3.org/2000/svg">
<path fill-rule="evenodd" clip-rule="evenodd" d="M3 3.26923C3 2.8444 3.34538 2.5 3.77143 2.5H5.82857C6.25462 2.5 6.6 2.8444 6.6 3.26923V4.60427L20.2835 5.57888C20.497 5.59408 20.6946 5.69706 20.829 5.86319C20.9634 6.02931 21.0225 6.24365 20.9922 6.45494L19.9637 13.6344C19.9094 14.0134 19.5839 14.2949 19.2 14.2949H6.6V16.859H17.1429C17.893 16.859 18.6125 17.1561 19.143 17.6851C19.6734 18.214 19.9714 18.9314 19.9714 19.6795C19.9714 20.4275 19.6734 21.1449 19.143 21.6739C18.6125 22.2028 17.893 22.5 17.1429 22.5C16.3927 22.5 15.6732 22.2028 15.1428 21.6739C14.6123 21.1449 14.3143 20.4275 14.3143 19.6795C14.3143 19.2296 14.4221 18.7908 14.6234 18.3974H8.34805C8.54936 18.7908 8.65714 19.2296 8.65714 19.6795C8.65714 20.4275 8.35913 21.1449 7.82867 21.6739C7.29821 22.2028 6.57876 22.5 5.82857 22.5C5.07839 22.5 4.35893 22.2028 3.82847 21.6739C3.29801 21.1449 3 20.4275 3 19.6795C3 18.9314 3.29801 18.214 3.82847 17.6851C4.17282 17.3417 4.59681 17.096 5.05714 16.9659V5.32846C5.0571 5.3237 5.0571 5.31893 5.05714 5.31416V4.03846H3.77143C3.34538 4.03846 3 3.69407 3 3.26923ZM6.6 6.14665V12.7564H18.5309L19.3478 7.05461L6.6 6.14665ZM5.82857 18.3974C5.48758 18.3974 5.16055 18.5325 4.91943 18.7729C4.67832 19.0134 4.54286 19.3395 4.54286 19.6795C4.54286 20.0195 4.67832 20.3456 4.91943 20.586C5.16055 20.8265 5.48758 20.9615 5.82857 20.9615C6.16956 20.9615 6.49659 20.8265 6.73771 20.586C6.97883 20.3456 7.11428 20.0195 7.11428 19.6795C7.11428 19.3395 6.97883 19.0134 6.73771 18.7729C6.49659 18.5325 6.16956 18.3974 5.82857 18.3974ZM17.1429 18.3974C16.8019 18.3974 16.4748 18.5325 16.2337 18.7729C15.9926 19.0134 15.8571 19.3395 15.8571 19.6795C15.8571 20.0195 15.9926 20.3456 16.2337 20.586C16.4748 20.8265 16.8019 20.9615 17.1429 20.9615C17.4838 20.9615 17.8109 20.8265 18.052 20.586C18.2931 20.3456 18.4286 20.0195 18.4286 19.6795C18.4286 19.3395 18.2931 19.0134 18.052 18.7729C17.8109 18.5325 17.4838 18.3974 17.1429 18.3974Z" fill="#333333"/>
</svg>
