<svg width="24" height="25" viewBox="0 0 24 25" fill="none" xmlns="http://www.w3.org/2000/svg">
<path d="M10.2097 4.42692C10.6159 3.19103 12.3841 3.19103 12.7903 4.42692L14.1028 8.42137C14.2845 8.97408 14.8054 9.34829 15.3931 9.34829H19.6407C20.955 9.34829 21.5014 11.0112 20.4382 11.775L17.0018 14.2437C16.5263 14.5853 16.3273 15.1908 16.5089 15.7435L17.8215 19.7379C18.2276 20.9738 16.7971 22.0015 15.7338 21.2377L12.2974 18.769C11.8219 18.4274 11.1781 18.4274 10.7026 18.769L7.26617 21.2377C6.20294 22.0015 4.77237 20.9738 5.17849 19.7379L6.49108 15.7435C6.6727 15.1908 6.47373 14.5853 5.99824 14.2437L2.56184 11.775C1.4986 11.0112 2.04503 9.34829 3.35926 9.34829H7.60689C8.19463 9.34829 8.71553 8.97408 8.89715 8.42137L10.2097 4.42692Z" fill="#D9A055"/>
</svg>
