<svg width="24" height="25" viewBox="0 0 24 25" fill="none" xmlns="http://www.w3.org/2000/svg">
<path fill-rule="evenodd" clip-rule="evenodd" d="M8.17317 3.2612C9.38642 2.75866 10.6868 2.5 12 2.5C13.3132 2.5 14.6136 2.75866 15.8268 3.2612C17.0401 3.76375 18.1425 4.50035 19.0711 5.42893C19.9997 6.35752 20.7362 7.45991 21.2388 8.67317C21.7413 9.88642 22 11.1868 22 12.5C22 13.8132 21.7413 15.1136 21.2388 16.3268C20.7362 17.5401 19.9997 18.6425 19.0711 19.5711C18.1425 20.4997 17.0401 21.2362 15.8268 21.7388C14.6136 22.2413 13.3132 22.5 12 22.5C10.6868 22.5 9.38642 22.2413 8.17317 21.7388C6.95991 21.2362 5.85752 20.4997 4.92893 19.5711C4.00035 18.6425 3.26375 17.5401 2.7612 16.3268C2.25866 15.1136 2 13.8132 2 12.5C2 11.1868 2.25866 9.88642 2.7612 8.67317C3.26375 7.45991 4.00035 6.35752 4.92893 5.42893C5.85752 4.50035 6.95991 3.76375 8.17317 3.2612ZM12 4.03846C10.8888 4.03846 9.78851 4.25733 8.76191 4.68256C7.73531 5.10779 6.80252 5.73106 6.01679 6.51679C5.23106 7.30252 4.60779 8.23531 4.18256 9.26191C3.75733 10.2885 3.53846 11.3888 3.53846 12.5C3.53846 13.6112 3.75733 14.7115 4.18256 15.7381C4.60779 16.7647 5.23106 17.6975 6.01679 18.4832C6.80252 19.2689 7.73531 19.8922 8.76191 20.3174C9.78851 20.7427 10.8888 20.9615 12 20.9615C13.1112 20.9615 14.2115 20.7427 15.2381 20.3174C16.2647 19.8922 17.1975 19.2689 17.9832 18.4832C18.7689 17.6975 19.3922 16.7647 19.8174 15.7381C20.2427 14.7115 20.4615 13.6112 20.4615 12.5C20.4615 11.3888 20.2427 10.2885 19.8174 9.26191C19.3922 8.23531 18.7689 7.30252 17.9832 6.51679C17.1975 5.73106 16.2647 5.10779 15.2381 4.68256C14.2115 4.25733 13.1112 4.03846 12 4.03846ZM15.6209 9.90479C15.9213 10.2052 15.9213 10.6922 15.6209 10.9926L11.5183 15.0952C11.2179 15.3956 10.7308 15.3956 10.4304 15.0952L8.37915 13.0439C8.07875 12.7435 8.07875 12.2565 8.37915 11.9561C8.67955 11.6557 9.1666 11.6557 9.46701 11.9561L10.9744 13.4634L14.533 9.90479C14.8334 9.60439 15.3204 9.60439 15.6209 9.90479Z" fill="#333333"/>
</svg>
