<svg width="24" height="25" viewBox="0 0 24 25" fill="none" xmlns="http://www.w3.org/2000/svg">
<path fill-rule="evenodd" clip-rule="evenodd" d="M9.94286 4.03846C9.87466 4.03846 9.80925 4.06548 9.76103 4.11356C9.71281 4.16165 9.68571 4.22687 9.68571 4.29487V6.60256H14.3143V4.29487C14.3143 4.22687 14.2872 4.16165 14.239 4.11356C14.1907 4.06548 14.1253 4.03846 14.0571 4.03846H9.94286ZM15.8571 6.60256V4.29487C15.8571 3.81884 15.6675 3.36231 15.3299 3.02571C14.9924 2.6891 14.5345 2.5 14.0571 2.5H9.94286C9.46547 2.5 9.00763 2.6891 8.67007 3.02571C8.3325 3.36231 8.14286 3.81884 8.14286 4.29487V6.60256H4.80902C4.80359 6.60251 4.79815 6.60251 4.7927 6.60256H3.77143C3.34538 6.60256 3 6.94696 3 7.3718C3 7.79663 3.34538 8.14103 3.77143 8.14103H4.09018L5.05735 19.714C5.06637 20.4496 5.36332 21.1531 5.88561 21.6739C6.41607 22.2028 7.13553 22.5 7.88571 22.5H16.1143C16.8645 22.5 17.5839 22.2028 18.1144 21.6739C18.6367 21.1531 18.9336 20.4496 18.9426 19.714L19.9098 8.14103H20.2286C20.6546 8.14103 21 7.79663 21 7.3718C21 6.94696 20.6546 6.60256 20.2286 6.60256H19.2073C19.2018 6.60251 19.1964 6.60251 19.191 6.60256H15.8571ZM5.63839 8.14103L6.59734 19.6156C6.59911 19.6369 6.6 19.6582 6.6 19.6795C6.6 20.0195 6.73546 20.3456 6.97658 20.586C7.2177 20.8265 7.54472 20.9615 7.88571 20.9615H16.1143C16.4553 20.9615 16.7823 20.8265 17.0234 20.586C17.2645 20.3456 17.4 20.0195 17.4 19.6795C17.4 19.6582 17.4009 19.6369 17.4027 19.6156L18.3616 8.14103H5.63839ZM9.94286 10.7051C10.3689 10.7051 10.7143 11.0495 10.7143 11.4744V17.6282C10.7143 18.053 10.3689 18.3974 9.94286 18.3974C9.51681 18.3974 9.17143 18.053 9.17143 17.6282V11.4744C9.17143 11.0495 9.51681 10.7051 9.94286 10.7051ZM14.0571 10.7051C14.4832 10.7051 14.8286 11.0495 14.8286 11.4744V17.6282C14.8286 18.053 14.4832 18.3974 14.0571 18.3974C13.6311 18.3974 13.2857 18.053 13.2857 17.6282V11.4744C13.2857 11.0495 13.6311 10.7051 14.0571 10.7051Z" fill="#333333"/>
</svg>
