<svg width="20" height="15" viewBox="0 0 20 15" fill="none" xmlns="http://www.w3.org/2000/svg">
<path fill-rule="evenodd" clip-rule="evenodd" d="M9.74089 0.548451C9.90722 0.48385 10.0928 0.48385 10.2591 0.548451L19.5614 4.16135C19.8263 4.26423 20 4.51332 20 4.79032V10.2097C20 10.5838 19.6876 10.8871 19.3023 10.8871C18.917 10.8871 18.6047 10.5838 18.6047 10.2097V5.79089L16.2791 6.69412V11.1129C16.2791 12.2181 15.3918 13.0847 14.2587 13.6348C13.0928 14.2008 11.5607 14.5 10 14.5C8.43933 14.5 6.90716 14.2008 5.74135 13.6348C4.60818 13.0847 3.72093 12.2181 3.72093 11.1129V6.69412L0.438565 5.41929C0.173687 5.31642 0 5.06732 0 4.79032C0 4.51332 0.173687 4.26423 0.438565 4.16135L9.74089 0.548451ZM4.69239 5.61221C4.68259 5.60815 4.67267 5.6043 4.66264 5.60066L2.57622 4.79032L10 1.90702L17.4238 4.79032L15.3374 5.60066C15.3273 5.6043 15.3174 5.60815 15.3076 5.61221L10 7.67362L4.69239 5.61221ZM5.11628 7.23605V11.1129C5.11628 11.445 5.40511 11.9568 6.36537 12.423C7.29299 12.8734 8.60011 13.1452 10 13.1452C11.3999 13.1452 12.707 12.8734 13.6346 12.423C14.5949 11.9568 14.8837 11.445 14.8837 11.1129V7.23605L10.2591 9.03219C10.0928 9.0968 9.90722 9.0968 9.74089 9.03219L5.11628 7.23605Z" fill="#333333"/>
</svg>
