<svg width="24" height="25" viewBox="0 0 24 25" fill="none" xmlns="http://www.w3.org/2000/svg">
<path fill-rule="evenodd" clip-rule="evenodd" d="M5.4782 3.92692C6.39183 3.01328 7.63099 2.5 8.92307 2.5C10.2152 2.5 11.4543 3.01328 12.3679 3.92692C13.2816 4.84055 13.7949 6.07971 13.7949 7.3718C13.7949 8.66388 13.2816 9.90304 12.3679 10.8167C11.4543 11.7303 10.2152 12.2436 8.92307 12.2436C7.63099 12.2436 6.39183 11.7303 5.4782 10.8167C4.56456 9.90304 4.05128 8.66388 4.05128 7.3718C4.05128 6.07971 4.56456 4.84055 5.4782 3.92692ZM8.92307 4.03846C8.03902 4.03846 7.19117 4.38965 6.56605 5.01477C5.94093 5.63989 5.58974 6.48774 5.58974 7.3718C5.58974 8.25585 5.94093 9.1037 6.56605 9.72882C7.19117 10.3539 8.03902 10.7051 8.92307 10.7051C9.80713 10.7051 10.655 10.3539 11.2801 9.72882C11.9052 9.1037 12.2564 8.25585 12.2564 7.3718C12.2564 6.48774 11.9052 5.63989 11.2801 5.01477C10.655 4.38965 9.80713 4.03846 8.92307 4.03846ZM15.3574 3.21176C15.4627 2.80021 15.8818 2.552 16.2934 2.65737C17.3413 2.92569 18.2701 3.53515 18.9334 4.38967C19.5967 5.2442 19.9568 6.29518 19.9568 7.37692C19.9568 8.45867 19.5967 9.50965 18.9334 10.3642C18.2701 11.2187 17.3413 11.8282 16.2934 12.0965C15.8818 12.2019 15.4627 11.9536 15.3574 11.5421C15.252 11.1305 15.5002 10.7115 15.9118 10.6061C16.6288 10.4225 17.2643 10.0055 17.7181 9.42083C18.172 8.83616 18.4183 8.11706 18.4183 7.37692C18.4183 6.63678 18.172 5.91769 17.7181 5.33302C17.2643 4.74834 16.6288 4.33134 15.9118 4.14776C15.5002 4.04238 15.252 3.62332 15.3574 3.21176ZM6.87179 16.3462C5.98774 16.3462 5.13989 16.6973 4.51477 17.3225C3.88965 17.9476 3.53846 18.7954 3.53846 19.6795V21.7308C3.53846 22.1556 3.19406 22.5 2.76923 22.5C2.3444 22.5 2 22.1556 2 21.7308V19.6795C2 18.3874 2.51328 17.1482 3.42691 16.2346C4.34055 15.321 5.57971 14.8077 6.87179 14.8077H10.9744C12.2664 14.8077 13.5056 15.321 14.4192 16.2346C15.3329 17.1482 15.8461 18.3874 15.8461 19.6795V21.7308C15.8461 22.1556 15.5017 22.5 15.0769 22.5C14.6521 22.5 14.3077 22.1556 14.3077 21.7308V19.6795C14.3077 18.7954 13.9565 17.9476 13.3314 17.3225C12.7063 16.6973 11.8584 16.3462 10.9744 16.3462H6.87179ZM17.409 15.5385C17.5152 15.1271 17.9348 14.8798 18.3461 14.986C19.3873 15.2548 20.3102 15.8605 20.9711 16.7086C21.6321 17.5568 21.9938 18.5998 22 19.6751L22 19.6795L22 21.7308C22 22.1556 21.6556 22.5 21.2308 22.5C20.8059 22.5 20.4615 22.1556 20.4615 21.7308V19.6817C20.4568 18.9468 20.2093 18.234 19.7576 17.6542C19.3054 17.0739 18.6739 16.6595 17.9615 16.4756C17.5502 16.3694 17.3028 15.9498 17.409 15.5385Z" fill="#333333"/>
</svg>
