<svg width="24" height="25" viewBox="0 0 24 25" fill="none" xmlns="http://www.w3.org/2000/svg">
<path fill-rule="evenodd" clip-rule="evenodd" d="M10.1636 5.05728C10.152 5.05336 10.1394 5.05378 10.1281 5.05845C10.1168 5.06311 10.1075 5.07172 10.1019 5.08272C10.0801 5.1255 10.0545 5.16615 10.0253 5.20414L6.44352 9.86799C6.2981 10.0573 6.07452 10.1681 5.83766 10.1681H3.79091C3.72306 10.1681 3.65798 10.1954 3.61 10.244C3.56202 10.2926 3.53507 10.3585 3.53507 10.4272V14.5728C3.53507 14.6415 3.56202 14.7074 3.61 14.756C3.65798 14.8046 3.72306 14.8319 3.79091 14.8319H5.83766C6.07452 14.8319 6.2981 14.9427 6.44352 15.132L10.0253 19.7959C10.0545 19.8338 10.0801 19.8745 10.1019 19.9173C10.1075 19.9283 10.1168 19.9369 10.1281 19.9416C10.1394 19.9462 10.152 19.9466 10.1636 19.9427C10.1751 19.9388 10.185 19.9308 10.1913 19.9202C10.1975 19.9096 10.1999 19.8971 10.1978 19.8849C10.1906 19.8419 10.187 19.7984 10.187 19.7549V5.24512C10.187 5.20155 10.1906 5.15806 10.1978 5.11511C10.1999 5.10291 10.1975 5.09038 10.1913 5.07977C10.185 5.06917 10.1751 5.06119 10.1636 5.05728ZM9.54901 3.61868C9.89965 3.47404 10.2898 3.46119 10.649 3.58244C11.0082 3.70369 11.3127 3.95105 11.5075 4.27983C11.6894 4.5868 11.7645 4.94585 11.7221 5.29982V19.7002C11.7645 20.0542 11.6894 20.4132 11.5075 20.7202C11.3127 21.0489 11.0082 21.2963 10.649 21.4176C10.2898 21.5388 9.89965 21.526 9.54901 21.3813C9.22406 21.2473 8.95292 21.0082 8.777 20.7026L5.46227 16.3865H3.79091C3.31593 16.3865 2.86041 16.1955 2.52455 15.8553C2.18868 15.5152 2 15.0538 2 14.5728V10.4272C2 9.94615 2.18868 9.48482 2.52455 9.14468C2.86041 8.80455 3.31593 8.61346 3.79091 8.61346H5.46228L8.777 4.29739C8.95292 3.99175 9.22406 3.75272 9.54901 3.61868ZM17.2142 4.75655C17.4806 4.42265 17.9639 4.37072 18.2936 4.64055C19.451 5.58778 20.3845 6.7852 21.0258 8.1451C21.6672 9.50501 22 10.993 22 12.5C22 14.007 21.6672 15.495 21.0258 16.8549C20.3845 18.2148 19.451 19.4122 18.2936 20.3595C17.9639 20.6293 17.4806 20.5773 17.2142 20.2434C16.9478 19.9096 16.999 19.4201 17.3287 19.1503C18.3081 18.3488 19.098 17.3356 19.6406 16.1849C20.1833 15.0342 20.4649 13.7752 20.4649 12.5C20.4649 11.2248 20.1833 9.96577 19.6406 8.81508C19.098 7.6644 18.3081 6.6512 17.3287 5.84969C16.999 5.57986 16.9478 5.09045 17.2142 4.75655ZM14.434 7.88797C14.6884 7.54453 15.1695 7.47493 15.5086 7.73251C16.2394 8.2876 16.8326 9.0074 17.2411 9.83489C17.6496 10.6624 17.8623 11.5748 17.8623 12.5C17.8623 13.4252 17.6496 14.3376 17.2411 15.1651C16.8326 15.9926 16.2394 16.7124 15.5086 17.2675C15.1695 17.5251 14.6884 17.4555 14.434 17.112C14.1797 16.7686 14.2484 16.2814 14.5875 16.0238C15.1277 15.6135 15.5661 15.0815 15.8681 14.4699C16.1701 13.8582 16.3273 13.1838 16.3273 12.5C16.3273 11.8162 16.1701 11.1418 15.8681 10.5301C15.5661 9.91851 15.1277 9.38649 14.5875 8.9762C14.2484 8.71862 14.1797 8.23141 14.434 7.88797Z" fill="#333333"/>
</svg>
