<svg width="32" height="33" viewBox="0 0 32 33" fill="none" xmlns="http://www.w3.org/2000/svg">
<path d="M16 32.5C24.8366 32.5 32 25.3366 32 16.5C32 7.66344 24.8366 0.5 16 0.5C7.16344 0.5 0 7.66344 0 16.5C0 25.3366 7.16344 32.5 16 32.5Z" fill="#25D366"/>
<path d="M16.5272 25.4016H16.5232C14.9309 25.401 13.3663 25.0015 11.9767 24.2435L6.93311 25.5666L8.28285 20.6365C7.45026 19.1936 7.01216 17.5569 7.01287 15.8801C7.01496 10.6344 11.283 6.36658 16.5271 6.36658C19.0722 6.36768 21.461 7.35849 23.2572 9.15685C25.0535 10.9551 26.0422 13.3455 26.0412 15.8876C26.0391 21.1321 21.7728 25.3994 16.5272 25.4016ZM12.2103 22.5212L12.4991 22.6925C13.7132 23.413 15.105 23.7943 16.524 23.7948H16.5272C20.8857 23.7948 24.4331 20.2473 24.4348 15.887C24.4356 13.774 23.6139 11.7873 22.1209 10.2926C20.6279 8.79784 18.6424 7.97427 16.5303 7.97353C12.1684 7.97353 8.62096 11.5206 8.61923 15.8806C8.61861 17.3748 9.03669 18.83 9.82826 20.089L10.0163 20.3882L9.21743 23.3063L12.2103 22.5212ZM21.3203 18.15C21.2609 18.0508 21.1024 17.9913 20.8647 17.8723C20.627 17.7533 19.4582 17.1783 19.2403 17.0989C19.0224 17.0196 18.8639 16.98 18.7054 17.2179C18.547 17.4558 18.0914 17.9913 17.9527 18.15C17.814 18.3086 17.6753 18.3285 17.4377 18.2095C17.2 18.0905 16.434 17.8395 15.5259 17.0296C14.8192 16.3992 14.3421 15.6207 14.2035 15.3827C14.0648 15.1447 14.1887 15.0161 14.3077 14.8976C14.4146 14.791 14.5454 14.6199 14.6643 14.4811C14.7831 14.3423 14.8227 14.2431 14.902 14.0845C14.9812 13.9258 14.9416 13.787 14.8822 13.668C14.8227 13.549 14.3473 12.3789 14.1492 11.9029C13.9562 11.4394 13.7603 11.5022 13.6144 11.4948C13.4758 11.4879 13.3172 11.4864 13.1587 11.4864C13.0003 11.4864 12.7427 11.5459 12.5248 11.7839C12.3069 12.0219 11.6928 12.597 11.6928 13.7671C11.6928 14.9372 12.5446 16.0676 12.6635 16.2263C12.7823 16.385 14.3398 18.7861 16.7245 19.8158C17.2917 20.0608 17.7345 20.207 18.0797 20.3166C18.6492 20.4976 19.1675 20.472 19.577 20.4108C20.0338 20.3426 20.9835 19.8358 21.1817 19.2805C21.3797 18.7251 21.3797 18.2491 21.3203 18.15Z" fill="#FDFDFD"/>
</svg>
